<svg  width="24" height="24" viewBox="0 0 24 24" fill="none" xmlns="http://www.w3.org/2000/svg">
<path d="M6.9082 6.9082L0.908203 0.908203M22.7139 16.0453L16.0453 22.7139C15.8043 22.9547 15.4775 23.0899 15.1368 23.0899C14.7961 23.0899 14.4693 22.9547 14.2282 22.7139L3.0682 11.5539C3.0017 11.4903 2.95026 11.4127 2.91763 11.3267C2.88501 11.2407 2.87202 11.1485 2.87963 11.0568L3.89106 4.47392C3.90285 4.32326 3.96805 4.18176 4.0749 4.0749C4.18176 3.96805 4.32326 3.90285 4.47392 3.89106L11.0568 2.87963C11.1485 2.87202 11.2407 2.88501 11.3267 2.91763C11.4127 2.95026 11.4903 3.0017 11.5539 3.0682L22.7139 14.2282C22.9547 14.4693 23.0899 14.7961 23.0899 15.1368C23.0899 15.4775 22.9547 15.8043 22.7139 16.0453Z" stroke="#808080" stroke-width="2.5" stroke-linecap="round" stroke-linejoin="round"/>
</svg>
