<svg width="16" height="16" viewBox="0 0 16 16" fill="none" xmlns="http://www.w3.org/2000/svg">
<path d="M3.4 14C3.4 14.7686 2.76863 15.4 2 15.4C1.23137 15.4 0.6 14.7686 0.6 14V7C0.6 6.23137 1.23137 5.6 2 5.6C2.76863 5.6 3.4 6.23137 3.4 7V14ZM12.6 14V11C12.6 10.2314 13.2314 9.6 14 9.6C14.7686 9.6 15.4 10.2314 15.4 11V14C15.4 14.7686 14.7686 15.4 14 15.4C13.2314 15.4 12.6 14.7686 12.6 14ZM9.4 14C9.4 14.7686 8.76863 15.4 8 15.4C7.23137 15.4 6.6 14.7686 6.6 14V2C6.6 1.23137 7.23137 0.6 8 0.6C8.76863 0.6 9.4 1.23137 9.4 2V14Z" stroke="#24753A" stroke-width="1.2"/>
</svg>
